# xmcd
#
# Track frame offsets:
#	150
#	15394
#	30224
#	42563
#	56369
#	67952
#	82675
#	97329
#	111068
#	123036
#
# Disc length: 1836 seconds
#
# Revision: 0
# Processed by: cddbd v1.5.2PL0 Copyright (c) Steve Scherf et al.
# Submitted via: EasyCDDAExtractor 16.0.6.1
#
DISCID=6c072a0a
DTITLE=Συλλογικός δίσκος - Λαϊκό τραγούδι 1954-1967, 1967-2
DYEAR=2008
DGENRE=Λαϊκή
TTITLE0=Μπιθικώτσης Γρηγόρης-Γκίκα Βούλα - Νά 'τανε το '21 [Σταύρος Κουγιουμτζ
TTITLE0=ής-Σώτια Τσώτου]
TTITLE1=Μενιδιάτης Μιχάλης - Όπου δεις φωτιά να καίει [Απόστολος Καλδάρας-Ευτ.
TTITLE1=Παπαγιαννοπούλου]
TTITLE2=Τσαουσάκης Πρόδρομος - Δυό μάγκες μού την στήσανε [Πρόδρομος Τσαουσάκη
TTITLE2=ς]
TTITLE3=Παπαδάκης Μάνος-Πόλυ Πόπη - Θα τα κάψω τα λεφτά μου [Βασίλης Βασιλειάδ
TTITLE3=ης-Πυθαγόρας]
TTITLE4=Τσαουσάκης Πρόδρομος-Διαμάντη Λίτσα - Φταίνε τα μάτια μιάς μικρής [Πρό
TTITLE4=δρομος Τσαουσάκης-Χρήστος Μίγκος]
TTITLE5=Καζαντζίδης Στέλιος - Έκανα πέτρα την καρδιά [Στέλιος Καζαντζίδης-Στέφ
TTITLE5=ανος Βαρτάνης]
TTITLE6=Λαμπράκη Χαρούλα-Τσιτσάνης Βασίλης - Άνδρα μου παραπονιάρη [Βασίλης Τσ
TTITLE6=ιτσάνης]
TTITLE7=Περπινιάδης Βαγγέλης - Η γαλιάντρα [Μπάμπης Μπακάλης]
TTITLE8=Μαρινέλλα - Έκλαψα χθες [Μίμης Πλέσσας-Άκος Δασκαλόπουλος]
TTITLE9=Διονυσίου Στράτος - Στο τιμόνι που κρατώ [Νίκος Δαλέζιος]
EXTD=
EXTT0=
EXTT1=
EXTT2=
EXTT3=
EXTT4=
EXTT5=
EXTT6=
EXTT7=
EXTT8=
EXTT9=
PLAYORDER=
